<svg xmlns="http://www.w3.org/2000/svg" version="1.1" xmlns:xlink="http://www.w3.org/1999/xlink" xmlns:svgjs="http://svgjs.dev/svgjs" width="2000" height="1247" viewBox="0 0 2000 1247"><g transform="matrix(1,0,0,1,-1.2121212121212466,0.504858299595071)"><svg viewBox="0 0 396 247" data-background-color="#ffffff" preserveAspectRatio="xMidYMid meet" height="1247" width="2000" xmlns="http://www.w3.org/2000/svg" xmlns:xlink="http://www.w3.org/1999/xlink"><g id="tight-bounds" transform="matrix(1,0,0,1,0.2400000000000091,-0.09999999999999432)"><svg viewBox="0 0 395.52 247.2" height="247.2" width="395.52"><g><svg></svg></g><g><svg viewBox="0 0 395.52 247.2" height="247.2" width="395.52"><g transform="matrix(1,0,0,1,112.0666580645161,47.215199999999996)"><svg viewBox="0 0 171.38668387096777 152.7696" height="152.7696" width="171.38668387096777"><g><svg viewBox="0 0 171.38668387096777 152.7696" height="152.7696" width="171.38668387096777"><g><svg viewBox="0 0 171.38668387096777 152.7696" height="152.7696" width="171.38668387096777"><g><svg viewBox="0 0 171.38668387096777 152.7696" height="152.7696" width="171.38668387096777"><g id="textblocktransform"><svg viewBox="0 0 171.38668387096777 152.7696" height="152.7696" width="171.38668387096777" id="textblock"><g><svg viewBox="0 0 171.38668387096777 152.7696" height="152.7696" width="171.38668387096777"><g transform="matrix(1,0,0,1,0,0)"><svg width="171.38668387096777" viewBox="2.1 -41.1 46.949999999999996 41.85" height="152.7696" data-palette-color="#a437db"><path d="M13.75 0.6L13.75 0.6Q9.95 0.6 7.4-0.75 4.85-2.1 3.55-4.93 2.25-7.75 2.1-12.25L2.1-12.25 9.75-13.4Q9.8-10.8 10.23-9.2 10.65-7.6 11.43-6.9 12.2-6.2 13.3-6.2L13.3-6.2Q14.7-6.2 15.13-7.15 15.55-8.1 15.55-9.15L15.55-9.15Q15.55-11.65 14.35-13.38 13.15-15.1 11.1-16.85L11.1-16.85 7.6-19.9Q5.3-21.85 3.73-24.33 2.15-26.8 2.15-30.45L2.15-30.45Q2.15-35.6 5.2-38.33 8.25-41.05 13.5-41.05L13.5-41.05Q16.75-41.05 18.73-39.95 20.7-38.85 21.73-37.08 22.75-35.3 23.13-33.33 23.5-31.35 23.55-29.55L23.55-29.55 15.85-28.6Q15.8-30.4 15.63-31.73 15.45-33.05 14.9-33.77 14.35-34.5 13.2-34.5L13.2-34.5Q11.95-34.5 11.38-33.45 10.8-32.4 10.8-31.35L10.8-31.35Q10.8-29.1 11.88-27.68 12.95-26.25 14.7-24.7L14.7-24.7 18.05-21.75Q20.7-19.5 22.53-16.65 24.35-13.8 24.35-9.6L24.35-9.6Q24.35-6.75 23.05-4.42 21.75-2.1 19.38-0.75 17 0.6 13.75 0.6ZM37.95 0.75L37.95 0.75Q33.7 0.75 31.27-0.85 28.85-2.45 27.82-5.33 26.8-8.2 26.8-11.95L26.8-11.95 26.8-13.4 35.15-13.4Q35.15-13.35 35.15-12.85 35.15-12.35 35.15-11.95L35.15-11.95Q35.15-9.95 35.4-8.7 35.65-7.45 36.3-6.88 36.95-6.3 38.1-6.3L38.1-6.3Q39.25-6.3 39.82-6.9 40.4-7.5 40.6-8.7 40.8-9.9 40.8-11.7L40.8-11.7Q40.8-14.7 39.97-16.28 39.15-17.85 36.55-17.9L36.55-17.9Q36.5-17.9 36-17.9 35.5-17.9 35-17.9L35-17.9 35-23.65Q35.35-23.65 35.7-23.65 36.05-23.65 36.35-23.65L36.35-23.65Q39-23.65 39.9-25.1 40.8-26.55 40.8-29.6L40.8-29.6Q40.8-31.95 40.17-33.2 39.55-34.45 37.85-34.45L37.85-34.45Q36.2-34.45 35.67-33.05 35.15-31.65 35.15-29.45L35.15-29.45Q35.15-28.95 35.15-28.43 35.15-27.9 35.15-27.35L35.15-27.35 26.8-27.35 26.8-29.8Q26.8-33.45 28.12-35.98 29.45-38.5 31.92-39.8 34.4-41.1 37.85-41.1L37.85-41.1Q41.35-41.1 43.85-39.85 46.35-38.6 47.7-36.18 49.05-33.75 49.05-30.15L49.05-30.15Q49.05-26.6 47.6-24.2 46.15-21.8 44.1-21.25L44.1-21.25Q45.5-20.75 46.62-19.65 47.75-18.55 48.4-16.68 49.05-14.8 49.05-11.9L49.05-11.9Q49.05-8.2 47.97-5.35 46.9-2.5 44.45-0.88 42 0.75 37.95 0.75Z" opacity="1" transform="matrix(1,0,0,1,0,0)" fill="#a437db" class="wordmark-text-0" data-fill-palette-color="primary" id="text-0"></path></svg></g></svg></g></svg></g></svg></g></svg></g></svg></g></svg></g><g><path d="M209.293 0c30.402 0 58.24 10.976 79.769 29.183l-11.148 0c-19.26-14.022-42.974-22.294-68.621-22.295-25.647 0-49.361 8.272-68.621 22.295l-11.147 0c21.528-18.206 49.366-29.183 79.768-29.183zM332.893 123.6c0 26.827-8.547 51.659-23.066 71.919v-12.598c10.279-17.383 16.178-37.663 16.178-59.321 0-21.658-5.899-41.938-16.178-59.321v-12.598c14.52 20.26 23.067 45.092 23.066 71.919zM209.293 247.2c-30.402 0-58.24-10.976-79.768-29.183l11.147 0c19.26 14.022 42.974 22.294 68.621 22.295 25.647 0 49.361-8.272 68.621-22.295h11.148c-21.528 18.206-49.366 29.183-79.769 29.183z" fill="#a437db" stroke="transparent" data-fill-palette-color="tertiary"></path></g></svg></g><defs></defs></svg><rect width="395.52" height="247.2" fill="none" stroke="none" visibility="hidden"></rect></g></svg></g></svg>